<svg xmlns="http://www.w3.org/2000/svg" viewBox="0 0 88 88" width="88" height="88" role="img" aria-label="MatsuRipple mitsudomoe ripple mark">
  <title>MatsuRipple — 三つ巴波紋 (Mitsudomoe Ripple)</title>
  <g fill="none" stroke="#E6592E" stroke-width="2.6">
    <circle cx="44" cy="44" r="40" stroke-opacity="0.26"/>
    <circle cx="44" cy="44" r="31" stroke-opacity="0.45"/>
    <circle cx="44" cy="44" r="22" stroke-opacity="0.66"/>
  </g>
  <g fill="#E6592E" transform="translate(44 44) scale(0.6) translate(-44 -44)">
    <path d="M44,44 C30,38 32,19 50,11 C56,21 53,38 44,44 Z" transform="rotate(0 44 44)"/>
    <path d="M44,44 C30,38 32,19 50,11 C56,21 53,38 44,44 Z" transform="rotate(120 44 44)"/>
    <path d="M44,44 C30,38 32,19 50,11 C56,21 53,38 44,44 Z" transform="rotate(240 44 44)"/>
  </g>
</svg>
